<svg xmlns="http://www.w3.org/2000/svg" xmlns:xlink="http://www.w3.org/1999/xlink"><symbol viewBox="0 0 24 24" id="adobe"><path d="M2 18a2 2 0 0 0 1.7 3h9.7l-2.7-4.5h-2L12 11l6 10h2.3a2 2 0 0 0 1.7-3L13.8 4a2 2 0 0 0-3.6 0Z"/></symbol><symbol viewBox="0 0 24 24" id="airplay"><path d="m12 14 5 6H7Zm-7 3H4a2 2 0 0 1-2-2V5a2 2 0 0 1 2-2h16a2 2 0 0 1 2 2v10a2 2 0 0 1-2 2h-1"/></symbol><symbol viewBox="0 0 24 24" id="alarm-clock"><circle cx="12" cy="12" r="10"/><path d="M12 7v5l3 3M1 4l3-3m16 0 3 3"/></symbol><symbol viewBox="0 0 24 24" id="alarm-exclamation"><circle cx="12" cy="12" r="10"/><path d="m1 4 3-3m16 0 3 3M12 8v4m0 4h0"/></symbol><symbol viewBox="0 0 24 24" id="alarm-minus"><circle cx="12" cy="12" r="10"/><path d="m1 4 3-3m16 0 3 3M9 12h6"/></symbol><symbol viewBox="0 0 24 24" id="alarm-plus"><circle cx="12" cy="12" r="10"/><path d="m1 4 3-3m16 0 3 3M9 12h6m-3-3v6"/></symbol><symbol viewBox="0 0 24 24" id="alarm-snooze"><circle cx="12" cy="12" r="10"/><path d="m1 4 3-3m16 0 3 3M9 9h6l-6 6h6"/></symbol><symbol viewBox="0 0 24 24" id="album"><rect width="20" height="20" x="2" y="2" rx="3"/><circle cx="12" cy="12" r="6"/><path d="M12 12h0"/></symbol><symbol viewBox="0 0 24 24" id="algolia"><path d="M16.1 11A4.25 4.25 0 0 0 9 9a4 4 0 0 0 6 6l6 6V2h-9a1 1 0 0 0 0 20q2 0 3-.5"/></symbol><symbol viewBox="0 0 24 24" id="alien"><path d="M20 14C24-2 0-2 4 14q2 6 8 8 6-2 8-8ZM8 11l2 2m6-2-2 2"/></symbol><symbol viewBox="0 0 24 24" id="align-center"><path d="M8 6h8M3 12h18M8 18h8"/></symbol><symbol viewBox="0 0 24 24" id="align-left"><path d="M3 6h9m-9 6h18M3 18h9"/></symbol><symbol viewBox="0 0 24 24" id="align-right"><path d="M12 6h9M3 12h18m-9 6h9"/></symbol><symbol viewBox="0 0 24 24" id="amazon"><path d="M17 9q8-2 3 7M2 11q8 5 16 1.5"/></symbol><symbol viewBox="0 0 24 24" id="anchor"><circle cx="12" cy="5" r="3"/><path d="M12 22V8m-9 5v4a5 5 0 0 0 5 5h8a5 5 0 0 0 5-5v-4M1 15l2-2 2 2m14 0 2-2 2 2"/></symbol><symbol viewBox="0 0 24 24" id="android"><path d="M23 19a1 1 0 0 0-22 0ZM6.5 9.5 4 5m13.5 4.5L20 5M7 14.5h0m10 0h0"/></symbol><symbol viewBox="0 0 24 24" id="angle-down"><path d="m6 9 6 6 6-6"/></symbol><symbol viewBox="0 0 24 24" id="angle-left"><path d="m15 18-6-6 6-6"/></symbol><symbol viewBox="0 0 24 24" id="angle-right"><path d="m9 18 6-6-6-6"/></symbol><symbol viewBox="0 0 24 24" id="angle-up"><path d="m6 15 6-6 6 6"/></symbol><symbol viewBox="0 0 24 24" id="angles-down"><path d="m6 13 6 6 6-6M6 5l6 6 6-6"/></symbol><symbol viewBox="0 0 24 24" id="angles-left"><path d="m11 18-6-6 6-6m8 12-6-6 6-6"/></symbol><symbol viewBox="0 0 24 24" id="angles-right"><path d="m5 18 6-6-6-6m8 12 6-6-6-6"/></symbol><symbol viewBox="0 0 24 24" id="angles-up"><path d="m6 19 6-6 6 6M6 11l6-6 6 6"/></symbol><symbol viewBox="0 0 24 24" id="app-gallery"><rect width="20" height="20" x="2" y="2" rx="6"/><path d="M8 7a1 1 0 0 0 8 0"/></symbol><symbol viewBox="0 0 24 24" id="app-store"><circle cx="12" cy="12" r="11"/><path d="M5.5 14h7m.8-8.5L8.6 14M7 17l.3-.5m6.2-5.9L17 17m-1.6-3h3.1m-7.8-8.5L12 7.8"/></symbol><symbol viewBox="0 0 24 24" id="apple"><path d="M12 3q2 0 2-2-2 0-2 2M8 6C0 6 3 22 8 22q2 0 3-.5t2 0q1 .5 3 .5 3 0 4.5-6a1 1 0 0 1-.5-7.5Q19 6 16 6q-1 0-2.5.5t-3 0Q9 6 8 6"/></symbol><symbol viewBox="0 0 24 24" id="arrow-down"><path d="M12 5v14m7-7-7 7-7-7"/></symbol><symbol viewBox="0 0 24 24" id="arrow-down-left"><path d="M17 7 7 17m10 0H7V7"/></symbol><symbol viewBox="0 0 24 24" id="arrow-down-long"><path d="m9 18 3 3 3-3M12 3v18"/></symbol><symbol viewBox="0 0 24 24" id="arrow-down-right"><path d="m7 7 10 10m0-10v10H7"/></symbol><symbol viewBox="0 0 24 24" id="arrow-left"><path d="M5 12h14m-7-7-7 7 7 7"/></symbol><symbol viewBox="0 0 24 24" id="arrow-left-long"><path d="m6 9-3 3 3 3m15-3H3"/></symbol><symbol viewBox="0 0 24 24" id="arrow-right"><path d="M5 12h14m-7-7 7 7-7 7"/></symbol><symbol viewBox="0 0 24 24" id="arrow-right-long"><path d="m18 9 3 3-3 3M3 12h18"/></symbol><symbol viewBox="0 0 24 24" id="arrow-rotate"><path d="M20 18a10 10 0 1 1 1.17-10M22 4v4h-4"/></symbol><symbol viewBox="0 0 24 24" id="arrow-trend-down"><path d="M23 18 13 8l-5 5-7-7m15 12h7v-7"/></symbol><symbol viewBox="0 0 24 24" id="arrow-trend-up"><path d="M23 6 13 16l-5-5-7 7M16 6h7v7"/></symbol><symbol viewBox="0 0 24 24" id="arrow-up"><path d="M12 5v14m7-7-7-7-7 7"/></symbol><symbol viewBox="0 0 24 24" id="arrow-up-left"><path d="M17 17 7 7m0 10V7h10"/></symbol><symbol viewBox="0 0 24 24" id="arrow-up-long"><path d="m9 6 3-3 3 3m-3 15V3"/></symbol><symbol viewBox="0 0 24 24" id="arrow-up-right"><path d="M7 17 17 7M7 7h10v10"/></symbol><symbol viewBox="0 0 24 24" id="arrows-rotate"><path d="M21.5 9a10 10 0 0 0-19 0M2 5v4h4m12 6h4v4M2.5 15a10 10 0 0 0 19 0"/></symbol><symbol viewBox="0 0 24 24" id="at"><circle cx="12" cy="12" r="4"/><path d="M16 12v1a1 1 0 0 0 6 0v-1a10 10 0 1 0-4 8"/></symbol><symbol viewBox="0 0 24 24" id="atom"><circle cx="12" cy="12" r="2"/><path d="M8 16C-4 4 4-4 16 8s4 20-8 8m8 0C4 28-4 20 8 8s20-4 8 8"/></symbol><symbol viewBox="0 0 24 24" id="backward"><path d="M22 5v14l-9-7ZM11 5v14l-9-7Z"/></symbol><symbol viewBox="0 0 24 24" id="badge-check"><path d="m8.5 12.5 2 2 5-5m4.3 5.7a1 1 0 0 0 0-6.4 1 1 0 0 0-4.6-4.6 1 1 0 0 0-6.4 0 1 1 0 0 0-4.6 4.6 1 1 0 0 0 0 6.4 1 1 0 0 0 4.6 4.6 1 1 0 0 0 6.4 0 1 1 0 0 0 4.6-4.6Z"/></symbol><symbol viewBox="0 0 24 24" id="bag-shopping"><path d="M3 7v11a4 4 0 0 0 4 4h10a4 4 0 0 0 4-4V7Zm13 3V6a4 4 0 0 0-8 0v4"/></symbol><symbol viewBox="0 0 24 24" id="bars"><path d="M3 6h18M3 12h18M3 18h18"/></symbol><symbol viewBox="0 0 24 24" id="bars-filter"><path d="M3 6h18M6 12h12m-9 6h6"/></symbol><symbol viewBox="0 0 24 24" id="bars-sort"><path d="M3 6h18M3 12h12M3 18h6"/></symbol><symbol viewBox="0 0 24 24" id="bilibili"><rect width="20" height="16" x="2" y="5" rx="4"/><path d="m7 2 3 3m7-3-3 3m-5 9v-2m6 0v2"/></symbol><symbol viewBox="0 0 24 24" id="binance"><path d="m12 7 5 5-5 5-5-5Zm-9 3-2 2 2 2m18-4 2 2-2 2M6 7l6-6 6 6m0 10-6 6-6-6"/></symbol><symbol viewBox="0 0 24 24" id="blogger"><path d="M8 15h8M8 9h4m7 0q-1 0-1-1a6 6 0 0 0-6-6H8a6 6 0 0 0-6 6v8a6 6 0 0 0 6 6h8a6 6 0 0 0 6-6v-5a2 2 0 0 0-2-2Z"/></symbol><symbol viewBox="0 0 24 24" id="bolt"><path d="M13 2v8h7l-9 12v-8H4Z"/></symbol><symbol viewBox="0 0 24 24" id="book"><path d="M20 22H7a3 3 0 0 1-3-3V5a3 3 0 0 1 3-3h13zM4 19a3 3 0 0 1 3-3h13"/></symbol><symbol viewBox="0 0 24 24" id="book-open"><path d="M12 5q5-3 10 0v15q-5-3-10 0Zm0 15q-5-3-10 0V5q5-3 10 0Z"/></symbol><symbol viewBox="0 0 24 24" id="bookmark"><path d="m12 17-7 4V5a2 2 0 0 1 2-2h10a2 2 0 0 1 2 2v16Z"/></symbol><symbol viewBox="0 0 24 24" id="bookmark-alt"><path d="M20 22H7a3 3 0 0 1-3-3V5a3 3 0 0 1 3-3h13zM4 19a3 3 0 0 1 3-3h13M10 2v10l3-2 3 2V2z"/></symbol><symbol viewBox="0 0 24 24" id="boolean"><path d="M5 15H4a2 2 0 0 1-2-2V4a2 2 0 0 1 2-2h9a2 2 0 0 1 2 2v1m5 17a2 2 0 0 0 2-2m0-3.5v-2m0-3.5a2 2 0 0 0-2-2m-3.5 0h-2M11 9a2 2 0 0 0-2 2m0 3.5v2M9 20a2 2 0 0 0 2 2m3.5 0h2"/></symbol><symbol viewBox="0 0 24 24" id="box-archive"><path d="M21 8v11a2 2 0 0 1-2 2H5a2 2 0 0 1-2-2V8M1 8V5a2 2 0 0 1 2-2h18a2 2 0 0 1 2 2v3Zm9 4h4"/></symbol><symbol viewBox="0 0 24 24" id="brackets"><path d="M9 20H4V4h5m6 16h5V4h-5"/></symbol><symbol viewBox="0 0 24 24" id="brackets-angled"><path d="m8 20-5-8 5-8m8 16 5-8-5-8"/></symbol><symbol viewBox="0 0 24 24" id="brackets-curly"><path d="M9 20H7a3 3 0 0 1-3-3 4 5 0 0 0-3-5 4 5 0 0 0 3-5 3 3 0 0 1 3-3h2m6 16h2a3 3 0 0 0 3-3 4 5 0 0 1 3-5 4 5 0 0 1-3-5 3 3 0 0 0-3-3h-2"/></symbol><symbol viewBox="0 0 24 24" id="brackets-round"><path d="M8 4a9 9 0 0 0 0 16m8 0a9 9 0 0 0 0-16"/></symbol><symbol viewBox="0 0 24 24" id="broom"><path d="m23 1-6 6M9 6q4-3 8 1t1 8l-6 8-6-6 1-3-3 1-3-3Zm0 0 9 9"/></symbol><symbol viewBox="0 0 24 24" id="bullhorn"><path d="M3 12a2 2 0 0 0 2 2h5q6 0 11 4V3q-5 4-11 4H5a2 2 0 0 0-2 2Zm7-5v12a2 2 0 0 1-4 0v-5"/></symbol><symbol viewBox="0 0 24 24" id="calendar"><rect width="18" height="17" x="3" y="5" rx="2"/><path d="M7 2v3m10-3v3M3 10h18"/></symbol><symbol viewBox="0 0 24 24" id="carrot"><path d="M1 23q10-2 14-6a1 1 0 0 0-8-8q-4 4-6 14m3-9 2 2m9 1-3-3m3-13a1 1 0 0 0 8 8q-4-4-8 0 4-4 0-8"/></symbol><symbol viewBox="0 0 24 24" id="cart-shopping"><path d="M1 2h4l3 12.4a2 2 0 0 0 2 1.6h9a2 2 0 0 0 2-1.6L23 6H6"/><circle cx="9" cy="21" r="1"/><circle cx="20" cy="21" r="1"/></symbol><symbol viewBox="0 0 24 24" id="cassette-tape"><rect width="22" height="16" x="1" y="4" rx="3"/><circle cx="7" cy="10" r="1"/><circle cx="17" cy="10" r="1"/><path d="m5 20 3-4h8l3 4"/></symbol><symbol viewBox="0 0 24 24" id="chain"><path d="M14 7h3a1 1 0 0 1 0 10h-3m-4 0H7A1 1 0 0 1 7 7h3m-2 5h8"/></symbol><symbol viewBox="0 0 24 24" id="check"><path d="M20 7 10 17l-5-5"/></symbol><symbol viewBox="0 0 24 24" id="check-double"><path d="m7 17-5-5m5 0 5 5L22 7m-10 5 5-5"/></symbol><symbol viewBox="0 0 24 24" id="chevron-down"><path d="m4 8 8 8 8-8"/></symbol><symbol viewBox="0 0 24 24" id="chevron-left"><path d="m16 20-8-8 8-8"/></symbol><symbol viewBox="0 0 24 24" id="chevron-right"><path d="m8 20 8-8-8-8"/></symbol><symbol viewBox="0 0 24 24" id="chevron-up"><path d="m4 16 8-8 8 8"/></symbol><symbol viewBox="0 0 24 24" id="chevrons-down"><path d="m4 3 8 8 8-8M4 13l8 8 8-8"/></symbol><symbol viewBox="0 0 24 24" id="chevrons-left"><path d="m21 20-8-8 8-8M11 20l-8-8 8-8"/></symbol><symbol viewBox="0 0 24 24" id="chevrons-right"><path d="m3 20 8-8-8-8m10 16 8-8-8-8"/></symbol><symbol viewBox="0 0 24 24" id="chevrons-up"><path d="m4 11 8-8 8 8M4 21l8-8 8 8"/></symbol><symbol viewBox="0 0 24 24" id="chrome"><circle cx="12" cy="12" r="11"/><circle cx="12" cy="12" r="4"/><path d="m15.5 14-5.2 8.8M8.5 14 3.4 5.2M12 8h10.2"/></symbol><symbol viewBox="0 0 24 24" id="circle"><circle cx="12" cy="12" r="10"/></symbol><symbol viewBox="0 0 24 24" id="circle-check"><circle cx="12" cy="12" r="10"/><path d="m8.5 12.5 2 2 5-5"/></symbol><symbol viewBox="0 0 24 24" id="circle-exclamation"><circle cx="12" cy="12" r="10"/><path d="M12 8v4m0 4h0"/></symbol><symbol viewBox="0 0 24 24" id="circle-xmark"><circle cx="12" cy="12" r="10"/><path d="m9.5 9.5 5 5m0-5-5 5"/></symbol><symbol viewBox="0 0 24 24" id="clock"><circle cx="12" cy="12" r="10"/><path d="M12 7v5l3 3"/></symbol><symbol viewBox="0 0 24 24" id="clock-rotate"><path d="M4 18A10 10 0 1 0 2.9 7.9M2 4v4h4m6-1v5l3 3"/></symbol><symbol viewBox="0 0 24 24" id="cloud"><path d="M18 20a1 1 0 1 0 0-10 1 1 0 1 0-13 2 1 1 0 0 0 0 8z"/></symbol><symbol viewBox="0 0 24 24" id="code"><path d="m16 19 7-7-7-7M8 5l-7 7 7 7"/></symbol><symbol viewBox="0 0 24 24" id="codepen"><path d="m12 2 10 6.5v7L12 22 2 15.5v-7Zm0 20v-6.5M12 2v6.5"/><path d="m22 8.5-10 7-10-7"/><path d="m2 15.5 10-7 10 7"/></symbol><symbol viewBox="0 0 24 24" id="codesandbox"><path d="m12 2 9 5v10l-9 5-9-5V7zM3 7l9 5 9-5m-9 5v10M3 11.7l5 2.8v5.3m13-8.1-5 2.8v5.3m-9-15 5 2.7 5-2.7"/></symbol><symbol viewBox="0 0 24 24" id="coffee"><path d="M6 2v3m4-3v3m4-3v3m4 4v9a4 4 0 0 1-4 4H6a4 4 0 0 1-4-4V9h17a1 1 0 0 1 0 8h-1"/></symbol><symbol viewBox="0 0 24 24" id="coinbase"><path d="M22 10a10 10 0 1 0 0 4h-6a4 4 0 1 1 0-4Z"/></symbol><symbol viewBox="0 0 24 24" id="columns"><rect width="18" height="18" x="3" y="3" rx="2"/><path d="M12 3v18"/></symbol><symbol viewBox="0 0 24 24" id="columns-3"><rect width="22" height="18" x="1" y="3" rx="2"/><path d="M8 3v18m8-18v18"/></symbol><symbol viewBox="0 0 24 24" id="command"><path d="M9 6a3 3 0 1 0-3 3h12a3 3 0 1 0-3-3v12a3 3 0 1 0 3-3H6a3 3 0 1 0 3 3Z"/></symbol><symbol viewBox="0 0 24 24" id="comment"><path d="M4.3 16.7a9 9 0 1 1 3 3L3 21z"/></symbol><symbol viewBox="0 0 24 24" id="comment-dots"><path d="M4.3 16.7a9 9 0 1 1 3 3L3 21zM8 12h0m4 0h0m4 0h0"/></symbol><symbol viewBox="0 0 24 24" id="compact-disc"><path d="M6 12a6 6 0 0 1 6-6"/><circle cx="12" cy="12" r="10"/><circle cx="12" cy="12" r="2"/></symbol><symbol viewBox="0 0 24 24" id="compress"><path d="M3 8h5V3m8 0v5h5m-5 13v-5h5M3 16h5v5"/></symbol><symbol viewBox="0 0 24 24" id="copy"><path d="M5 15H4a2 2 0 0 1-2-2V4a2 2 0 0 1 2-2h9a2 2 0 0 1 2 2v1"/><rect width="13" height="13" x="9" y="9" rx="2"/></symbol><symbol viewBox="0 0 24 24" id="copyright"><circle cx="12" cy="12" r="9"/><path d="M14.6 9a4 4 0 1 0 0 6"/></symbol><symbol viewBox="0 0 24 24" id="credit-card"><rect width="22" height="16" x="1" y="4" rx="2"/><path d="M1 9h22M5 16h2m3 0h5"/></symbol><symbol viewBox="0 0 24 24" id="cube"><path d="m12 2 9 5v10l-9 5-9-5V7zM3 7l9 5 9-5m-9 5v10"/></symbol><symbol viewBox="0 0 24 24" id="desktop"><rect width="22" height="15" x="1" y="3" rx="3"/><path d="M8 21h8M1 13h22"/></symbol><symbol viewBox="0 0 24 24" id="deviantart"><path d="M9.4 11H5V6h7.5L15 2h4v4l-4.4 7H19v5h-7.5L9 22H5v-4Z"/></symbol><symbol viewBox="0 0 24 24" id="devices"><path d="M1 19h12m0-3H4a2 2 0 0 1-2-2V5a2 2 0 0 1 2-2h14a2 2 0 0 1 2 2v3"/><rect width="6" height="10" x="17" y="12" rx="2"/></symbol><symbol viewBox="0 0 24 24" id="dice"><rect width="18" height="18" x="3" y="3" rx="2"/><circle cx="15.5" cy="8.5" r=".5"/><circle cx="12" cy="12" r=".5"/><circle cx="8.5" cy="15.5" r=".5"/></symbol><symbol viewBox="0 0 24 24" id="disc"><circle cx="12" cy="12" r="10"/><circle cx="12" cy="12" r="2"/></symbol><symbol viewBox="0 0 24 24" id="discord"><path d="M9 3q-2.5.5-5 2-3 5-3 12 2 2.5 6 4 1-1.5 1.5-3.5M7 17q5 2 10 0m-1.5.5q.5 2 1.5 3.5 4-1.5 6-4 0-7-3-12-2.5-1.5-5-2l-1 2q-2-.5-4 0L9 3"/><circle cx="8" cy="12" r="1"/><circle cx="16" cy="12" r="1"/></symbol><symbol viewBox="0 0 24 24" id="disqus"><path d="M9 8v8h3a1 1 0 0 0 0-8ZM7 21a10.5 10.5 0 1 0-4-4l-1 5Z"/></symbol><symbol viewBox="0 0 24 24" id="dollar"><path d="M12 2v20m4-17h-6a3.5 3.5 0 0 0 0 7h4.5a3.5 3.5 0 0 1 0 7H6"/></symbol><symbol viewBox="0 0 24 24" id="download"><path d="m7 10 5 5 5-5m-5 5V3m10 12v4a2 2 0 0 1-2 2H4a2 2 0 0 1-2-2v-4"/></symbol><symbol viewBox="0 0 24 24" id="download-cloud"><path d="M18 17a5 5 0 1 0 0-10A1 1 0 1 0 5 9a1 1 0 0 0 0 8h1m3 3 3 3 3-3m-3 3V11"/></symbol><symbol viewBox="0 0 24 24" id="dribbble"><circle cx="12" cy="12" r="10"/><path d="M8.5 2.7a38 38 0 0 1 8.1 18.1m2.6-15.7a18 10 0 0 1-17.1 5.8m3.2 8.5A14 15 0 0 1 21.9 13"/></symbol><symbol viewBox="0 0 24 24" id="droplet"><path d="m12 1 6 6A9 9 0 1 1 6 7Z"/></symbol><symbol viewBox="0 0 24 24" id="ellipsis"><circle cx="5" cy="12" r="1"/><circle cx="12" cy="12" r="1"/><circle cx="19" cy="12" r="1"/></symbol><symbol viewBox="0 0 24 24" id="ellipsis-vertical"><circle cx="12" cy="5" r="1"/><circle cx="12" cy="12" r="1"/><circle cx="12" cy="19" r="1"/></symbol><symbol viewBox="0 0 24 24" id="envelope"><rect width="20" height="16" x="2" y="4" rx="2"/><path d="m22 8-10 5L2 8"/></symbol><symbol viewBox="0 0 24 24" id="equals"><path d="M5 15h14M5 9h14"/></symbol><symbol viewBox="0 0 24 24" id="euro"><path d="M4 14h10M4 10h10m4-5a8 8 0 1 0 0 14"/></symbol><symbol viewBox="0 0 24 24" id="expand"><path d="M3 8V3h5m8 0h5v5m0 8v5h-5m-8 0H3v-5"/></symbol><symbol viewBox="0 0 24 24" id="eye"><circle cx="12" cy="12" r="3"/><path d="M1 12q11 16 22 0Q12-4 1 12"/></symbol><symbol viewBox="0 0 24 24" id="face-angry"><path d="m14 9 2.5-1M10 9 7.5 8M9 10h0m6 0h0m-7 6q4-4 8 0"/><circle cx="12" cy="12" r="10"/></symbol><symbol viewBox="0 0 24 24" id="face-frown"><path d="M9 9h.01M15 9h.01M8 16q4-4 8 0"/><circle cx="12" cy="12" r="10"/></symbol><symbol viewBox="0 0 24 24" id="face-laugh"><path d="M9 9h.01M15 9h.01M6 13a6.1 6.1 0 0 0 12 0Z"/><circle cx="12" cy="12" r="10"/></symbol><symbol viewBox="0 0 24 24" id="face-meh"><path d="M8 15h8M9 9h.01M15 9h.01"/><circle cx="12" cy="12" r="10"/></symbol><symbol viewBox="0 0 24 24" id="face-meh-blank"><path d="M9 9h.01M15 9h.01"/><circle cx="12" cy="12" r="10"/></symbol><symbol viewBox="0 0 24 24" id="face-smile"><path d="M9 9h.01M15 9h.01M8 14q4 4 8 0"/><circle cx="12" cy="12" r="10"/></symbol><symbol viewBox="0 0 24 24" id="facebook"><path d="M17 14h-3v8h-4v-8H7v-4h3V7a5 5 0 0 1 5-5h3v4h-3q-1 0-1 1v3h4Z"/></symbol><symbol viewBox="0 0 24 24" id="facebook-alt"><circle cx="12" cy="12" r="11"/><path d="M12 23V9.5A2.5 2.5 0 0 1 15 7m-5 6h4.5"/></symbol><symbol viewBox="0 0 24 24" id="feather"><path d="M20.25 12.24a1 1 0 0 0-8.51-8.49L5 10.5V19h8.5ZM2 22 16 8m-7 7h8.5"/></symbol><symbol viewBox="0 0 24 24" id="figma"><path d="M8.5 9a1 1 0 0 1 0-7h7a1 1 0 0 1 0 7h-7a1 1 0 0 0 0 7H12 8.5a1 1 0 0 0 0 7 3.5 3.5 0 0 0 3.5-3.5V2"/><circle cx="15.5" cy="12.5" r="3.5"/></symbol><symbol viewBox="0 0 24 24" id="file"><path d="M14 2H6a2 2 0 0 0-2 2v16a2 2 0 0 0 2 2h12a2 2 0 0 0 2-2V8Z"/></symbol><symbol viewBox="0 0 24 24" id="file-lines"><path d="M14 2H6a2 2 0 0 0-2 2v16a2 2 0 0 0 2 2h12a2 2 0 0 0 2-2V8Zm2 11H8m8 4H8m4-8H8"/></symbol><symbol viewBox="0 0 24 24" id="file-minus"><path d="M14 2H6a2 2 0 0 0-2 2v16a2 2 0 0 0 2 2h12a2 2 0 0 0 2-2V8ZM9 15h6"/></symbol><symbol viewBox="0 0 24 24" id="file-plus"><path d="M14 2H6a2 2 0 0 0-2 2v16a2 2 0 0 0 2 2h12a2 2 0 0 0 2-2V8Zm-2 16v-6m-3 3h6"/></symbol><symbol viewBox="0 0 24 24" id="file-search"><circle cx="11.5" cy="14.5" r="3.5"/><path d="m4 22 5-5m-5-2V4a2 2 0 0 1 2-2h8l6 6v12a2 2 0 0 1-2 2h-7"/></symbol><symbol viewBox="0 0 24 24" id="film"><rect width="20" height="20" x="2" y="2" rx="3" ry="3"/><path d="M7 2v20M17 2v20M2 12h20M2 7h5m15 0h-5M2 17h5m15 0h-5"/></symbol><symbol viewBox="0 0 24 24" id="filter"><path d="M22 3H2l8 10v4l4 4v-8l8-10Z"/></symbol><symbol viewBox="0 0 24 24" id="fingerprint"><path d="M6 18a10 10 0 0 0 2-6 4 4 0 0 1 8 0 16 16 0 0 1-1 6m-3-5a14 14 0 0 1-3 8m-6-6a9 9 0 0 0 1-4 8 8 0 0 1 13-6.2M19.5 8a8 8 0 0 1 .5 5"/></symbol><symbol viewBox="0 0 24 24" id="fire"><path d="M6 9.7a8 8 0 1 0 10.4-1.4Q16 12 12 13q3-6-2-12 0 5-4 8.7"/></symbol><symbol viewBox="0 0 24 24" id="flipboard"><path d="M3 21h6v-6h6V9h6V3H3Z"/></symbol><symbol viewBox="0 0 24 24" id="floppy-disk"><path d="M17 3H5a2 2 0 0 0-2 2v14a2 2 0 0 0 2 2h14a2 2 0 0 0 2-2V7Zm0 18v-8H7v8M7 3v5h8"/></symbol><symbol viewBox="0 0 24 24" id="folder"><path d="M9 3H4a2 2 0 0 0-2 2v14a2 2 0 0 0 2 2h16a2 2 0 0 0 2-2V8a2 2 0 0 0-2-2h-9Z"/></symbol><symbol viewBox="0 0 24 24" id="folder-minus"><path d="M9 14h6M9 3H4a2 2 0 0 0-2 2v14a2 2 0 0 0 2 2h16a2 2 0 0 0 2-2V8a2 2 0 0 0-2-2h-9Z"/></symbol><symbol viewBox="0 0 24 24" id="folder-plus"><path d="M12 17v-6m-3 3h6M9 3H4a2 2 0 0 0-2 2v14a2 2 0 0 0 2 2h16a2 2 0 0 0 2-2V8a2 2 0 0 0-2-2h-9Z"/></symbol><symbol viewBox="0 0 24 24" id="folder-search"><circle cx="15.5" cy="14.5" r="3.5"/><path d="m18 17 5 5m-1-8V8a2 2 0 0 0-2-2h-9L9 3H4a2 2 0 0 0-2 2v14a2 2 0 0 0 2 2h11"/></symbol><symbol viewBox="0 0 24 24" id="forward"><path d="M2 5v14l9-7Zm11 0v14l9-7Z"/></symbol><symbol viewBox="0 0 24 24" id="gamepad"><rect width="22" height="14" x="1" y="5" rx="3"/><path d="M7 10v4m-2-2h4m6 1h0m3-2h0"/></symbol><symbol viewBox="0 0 24 24" id="gamepad-modern"><path d="M9 16h6a1 1 0 0 0 0-12H9a6 6 0 0 0-5.9 5l-1.9 6.9A3 3 0 0 0 6 19.2Zm6 0 3 3.3a3 3 0 0 0 4.8-3.4L20.9 9M8 8v4m-2-2h4m5 0h2"/></symbol><symbol viewBox="0 0 24 24" id="gear"><circle cx="12" cy="12" r="3"/><path d="M10 21a1 1 0 0 0 4 0 1.8 1.8 0 0 1 3-1.3 1 1 0 0 0 2.8-2.7 1.8 1.8 0 0 1 1.2-3 1 1 0 0 0 0-4 1.8 1.8 0 0 1-1.2-3A1 1 0 0 0 17 4.4 1.8 1.8 0 0 1 14 3a1 1 0 0 0-4 0 1.8 1.8 0 0 1-3 1.4A1 1 0 0 0 4.2 7 1.8 1.8 0 0 1 3 10a1 1 0 0 0 0 4 1.8 1.8 0 0 1 1.2 3A1 1 0 0 0 7 19.7a1.8 1.8 0 0 1 3 1.3Z"/></symbol><symbol viewBox="0 0 24 24" id="get-pocket"><path d="M21 3a2 2 0 0 1 2 2v6a9 9 0 0 1-22 0V5a2 2 0 0 1 2-2ZM7 10l5 4 5-4"/></symbol><symbol viewBox="0 0 24 24" id="ghost"><path d="M15 9v1m6 0a1 1 0 0 0-18 0v13c5-6 6 0 9 0s4-6 9 0ZM9 9v1"/></symbol><symbol viewBox="0 0 24 24" id="git-branch"><circle cx="6" cy="5" r="3"/><circle cx="18" cy="12" r="3"/><circle cx="6" cy="19" r="3"/><path d="M6 8v8m11-1s-2 4-8 4"/></symbol><symbol viewBox="0 0 24 24" id="git-commit"><circle cx="12" cy="12" r="4"/><path d="M1.1 12H7m10 0h6"/></symbol><symbol viewBox="0 0 24 24" id="git-fork"><circle cx="6" cy="5" r="3"/><circle cx="18" cy="5" r="3"/><circle cx="12" cy="19" r="3"/><path d="M6 8v1a3 3 0 0 0 3 3h6a3 3 0 0 0 3-3V8m-6 4v4"/></symbol><symbol viewBox="0 0 24 24" id="git-merge"><circle cx="6" cy="5" r="3"/><circle cx="18" cy="12" r="3"/><circle cx="6" cy="19" r="3"/><path d="M15 12s-6 1-9-4v8"/></symbol><symbol viewBox="0 0 24 24" id="git-pull"><circle cx="6" cy="5" r="3"/><circle cx="18" cy="19" r="3"/><circle cx="6" cy="19" r="3"/><path d="M6 8v8m7-10h3a2 2 0 0 1 2 2v7"/></symbol><symbol viewBox="0 0 24 24" id="github"><path d="M9 22v-3q0-2 1-3A7 6.5 0 0 1 5 5Q4 3 5 1q3 0 4 2 3.5-1 7 0 1-2 4-2 1 2 0 4a7 6.5 0 0 1-5 11q1 1 1 3v3m-7-3c-4 1-4-2-7-3"/></symbol><symbol viewBox="0 0 24 24" id="gitlab"><path d="M1 14 5 2l3 8h8l3-8 4 12-11 8Z"/></symbol><symbol viewBox="0 0 24 24" id="globe"><path d="M2 12h20M12 2a15 15 0 0 0 0 20 15 15 0 0 0 0-20"/><circle cx="12" cy="12" r="10"/></symbol><symbol viewBox="0 0 24 24" id="gohugo"><path d="m12 1 9.5 5.5v11L12 23l-9.5-5.5v-11ZM9 8v8m0-4h6m0-4v8"/></symbol><symbol viewBox="0 0 24 24" id="google"><path d="M16.5 6.6a7 7 0 1 0 2.2 7.4H12v-4h10.8a11 11 0 1 1-3.3-6Z"/></symbol><symbol viewBox="0 0 24 24" id="google-drive"><path d="m1.5 15 7-12h7l7 12-3.5 6H5ZM5 21l7-12m-3.5 6h14m-6.9 0L8.5 3"/></symbol><symbol viewBox="0 0 24 24" id="google-play"><path d="M6.8 2.2a2.5 2.5 0 0 0-3.8 2v15.6a2.5 2.5 0 0 0 3.8 2L21 13.7a2 2 0 0 0 0-3.4ZM3.2 3.5l12.8 13m-12.8 4L16 7.5"/></symbol><symbol viewBox="0 0 24 24" id="grip-dots"><circle cx="5" cy="9" r="1"/><circle cx="12" cy="9" r="1"/><circle cx="19" cy="9" r="1"/><circle cx="5" cy="15" r="1"/><circle cx="12" cy="15" r="1"/><circle cx="19" cy="15" r="1"/></symbol><symbol viewBox="0 0 24 24" id="grip-dots-vertical"><circle cx="9" cy="5" r="1"/><circle cx="9" cy="12" r="1"/><circle cx="9" cy="19" r="1"/><circle cx="15" cy="5" r="1"/><circle cx="15" cy="12" r="1"/><circle cx="15" cy="19" r="1"/></symbol><symbol viewBox="0 0 24 24" id="gumroad"><circle cx="20" cy="4" r="2"/><circle cx="15" cy="16" r="2"/><path d="M18 4H5a2 2 0 0 0-2 2v14a2 2 0 0 0 2 2h14a2 2 0 0 0 2-2v-8a2 2 0 0 0-2-2h-8a2 2 0 0 0-2 2v2a2 2 0 0 0 2 2h2"/></symbol><symbol viewBox="0 0 24 24" id="headphones"><path d="M2 14h4q2 0 2 2v4q0 2-2 2H4q-2 0-2-2v-8a1 1 0 0 1 20 0v8q0 2-2 2h-2q-2 0-2-2v-4q0-2 2-2h4"/></symbol><symbol viewBox="0 0 24 24" id="heart"><path d="m12 21-8.8-8.3A5.6 5.6 0 1 1 12 6a5.6 5.6 0 1 1 8.9 6.6z"/></symbol><symbol viewBox="0 0 24 24" id="hexagon"><path d="m12 1 9.5 5.5v11L12 23l-9.5-5.5v-11Z"/></symbol><symbol viewBox="0 0 24 24" id="home"><path d="M1 12 12 1l11 11m-2-2v10a2 2 0 0 1-2 2H5a2 2 0 0 1-2-2V10m6 12v-8h6v8"/></symbol><symbol viewBox="0 0 24 24" id="image"><rect width="18" height="18" x="3" y="3" rx="2"/><circle cx="15" cy="9" r="2"/><path d="m3 18 6-6 9 9"/></symbol><symbol viewBox="0 0 24 24" id="images"><rect width="18" height="18" x="5" y="1" rx="2"/><circle cx="17" cy="7" r="2"/><path d="m5 16 6-6 9 9M1 5v13a5 5 0 0 0 5 5h13"/></symbol><symbol viewBox="0 0 24 24" id="indent"><path d="M9 6h12m-8 6h8M9 18h12M3 8l4 4-4 4"/></symbol><symbol viewBox="0 0 24 24" id="instagram"><circle cx="12" cy="12" r="4"/><rect width="20" height="20" x="2" y="2" rx="5"/><path d="M17.5 6.5h0"/></symbol><symbol viewBox="0 0 24 24" id="key"><circle cx="8" cy="16" r=".5"/><path d="M18 2h4v5h-3v3h-3v2l-2.3 2.3a6 6 0 1 1-4-4Z"/></symbol><symbol viewBox="0 0 24 24" id="key-skeleton"><path d="m11 12 9-9 3 3m-6 0 3 3"/><circle cx="7" cy="16" r="5.5"/></symbol><symbol viewBox="0 0 24 24" id="language"><path d="M2 5h14M9 2v3m4 0q-2 8-9 11m2-7q2 4 6 6m1 7 5-11 5 11m-1.4-3h-7.2"/></symbol><symbol viewBox="0 0 24 24" id="laptop"><rect width="18" height="13" x="3" y="4" rx="2"/><path d="M1 20h22"/></symbol><symbol viewBox="0 0 24 24" id="laravel"><path d="m14 10.8 4.5 2.5M5.5 1 1 3.5V18l9 5 8.5-4.7v-10L23 5.8v5L10 18l-4.5-2.5V6L10 3.5ZM1 3.5 5.5 6m0 9.5 8.5-4.7v-5l4.5-2.5L23 5.8M10 3.5V13m4-7.2 4.5 2.5M10 18v5"/></symbol><symbol viewBox="0 0 24 24" id="layout"><rect width="18" height="18" x="3" y="3" rx="2"/><path d="M3 9h18M9 21V9"/></symbol><symbol viewBox="0 0 24 24" id="link"><path d="M9 13a5 5 0 0 0 8 1l4-4a1 1 0 0 0-7-7l-2 2m3 6a5 5 0 0 0-8-1l-4 4a1 1 0 0 0 7 7l2-2"/></symbol><symbol viewBox="0 0 24 24" id="linkedin"><circle cx="4" cy="4" r="2"/><path d="M2 9h4v12H2Zm20 12h-4v-7a2 2 0 0 0-4 0v7h-4v-7a6 6 0 0 1 12 0Z"/></symbol><symbol viewBox="0 0 24 24" id="list"><path d="M7 6h14M7 12h14M7 18h14M3 6h0m0 6h0m0 6h0"/></symbol><symbol viewBox="0 0 24 24" id="location"><path d="m12 23-6-6a9 9 0 1 1 12 0z"/></symbol><symbol viewBox="0 0 24 24" id="location-crosshairs"><path d="M23 12h-3M4 12H1m11-8V1m0 22v-3"/><circle cx="12" cy="12" r="8"/><circle cx="12" cy="12" r="3"/></symbol><symbol viewBox="0 0 24 24" id="location-dot"><circle cx="12" cy="10" r="3"/><path d="m12 23-6-6a9 9 0 1 1 12 0z"/></symbol><symbol viewBox="0 0 24 24" id="lock"><path d="M16 10V6a4 4 0 0 0-8 0v4"/><rect width="18" height="12" x="3" y="10" rx="2"/></symbol><symbol viewBox="0 0 24 24" id="map"><path d="M1 6v16l7-4 8 4 7-4V2l-7 4-8-4zm7-4v16m8-12v16"/></symbol><symbol viewBox="0 0 24 24" id="map-pin"><circle cx="12" cy="7" r="6"/><path d="M12 13v10"/></symbol><symbol viewBox="0 0 24 24" id="mega"><circle cx="12" cy="12" r="11"/><path d="M7 15V9l5 5 5-5v6"/></symbol><symbol viewBox="0 0 24 24" id="message"><path d="M21 15a2 2 0 0 1-2 2H7l-4 4V5a2 2 0 0 1 2-2h14a2 2 0 0 1 2 2z"/></symbol><symbol viewBox="0 0 24 24" id="message-dots"><path d="M21 15a2 2 0 0 1-2 2H7l-4 4V5a2 2 0 0 1 2-2h14a2 2 0 0 1 2 2zM8 10h0m4 0h0m4 0h0"/></symbol><symbol viewBox="0 0 24 24" id="meta"><path d="M2 9c2-5 7-6 10 0s5 10 8 10 4-5 2-10-7-6-10 0-5 10-8 10-4-5-2-10Z"/></symbol><symbol viewBox="0 0 24 24" id="meteor"><circle cx="9.5" cy="14.5" r="3.5"/><path d="M8 5 4 9a1 1 0 0 0 11 11l7-7m-6-2 6-6m-6-1 2-2m-5 5h0"/></symbol><symbol viewBox="0 0 24 24" id="microchip"><rect width="16" height="16" x="4" y="4" rx="2"/><path d="M9 9h6v6H9zm0-8v3m6-3v3M9 20v3m6-3v3m5-14h3m-3 5h3M1 9h3m-3 5h3"/></symbol><symbol viewBox="0 0 24 24" id="microphone"><path d="M5 12a1 1 0 0 0 14 0m-7 7v4m-4 0h8M9 12a1 1 0 0 0 6 0V4a1 1 0 0 0-6 0Z"/></symbol><symbol viewBox="0 0 24 24" id="minus"><path d="M5 12h14"/></symbol><symbol viewBox="0 0 24 24" id="mobile"><rect width="16" height="22" x="4" y="1" rx="3"/><path d="M10 19h4"/></symbol><symbol viewBox="0 0 24 24" id="moon"><path d="M21 14a9 9 0 1 1-9-11 7 7 0 0 0 9 11z"/></symbol><symbol viewBox="0 0 24 24" id="music"><path d="M22 16V2L9 5v13"/><circle cx="5" cy="18" r="4"/><circle cx="18" cy="16" r="4"/></symbol><symbol viewBox="0 0 24 24" id="music-note"><path d="m12 9 6-2V2l-6 2v14"/><circle cx="8" cy="18" r="4"/></symbol><symbol viewBox="0 0 24 24" id="newspaper"><path d="M2 6v13a2 2 0 0 0 4 0V5a2 2 0 0 1 2-2h12a2 2 0 0 1 2 2v13a3 3 0 0 1-3 3H4m7-13h6m-6 4h6m-6 4h6"/></symbol><symbol viewBox="0 0 24 24" id="open-source"><path d="M16 21.2a10 10 0 1 0-8 0l2.4-6.1a3.5 3.5 0 1 1 3.2 0Z"/></symbol><symbol viewBox="0 0 24 24" id="openai"><path d="M14.1 13.3 8 16.8l-4.2-2.6A4 4 0 0 1 6 6.7m6 7.8L6 11V6a4 4 0 0 1 7.6-2m-3.7 9.3V6.2l4.4-2.6a4 4 0 0 1 5.3 5.8m-9.7 1.3L16 7.2l4.2 2.6a4 4 0 0 1-2.2 7.5m-6-7.8 6 3.5v5a4 4 0 0 1-7.6 2m3.7-9.3v7.1l-4.4 2.6a4 4 0 0 1-5.3-5.8"/></symbol><symbol viewBox="0 0 24 24" id="outdent"><path d="M15 6h6m-10 6h10m-6 6h6M7 8l-4 4 4 4"/></symbol><symbol viewBox="0 0 24 24" id="paint-roller"><rect width="4" height="6" x="10" y="16" rx="2"/><rect width="16" height="6" x="3" y="2" rx="2"/><path d="M19 5h1q2 0 2 2 0 6-7 6-3 0-3 3"/></symbol><symbol viewBox="0 0 24 24" id="palette"><circle cx="14" cy="7" r=".5"/><circle cx="9" cy="8" r=".5"/><circle cx="7" cy="13" r=".5"/><path d="M12 22a10 10 0 1 1 10-10q0 4-5 4t-4 3-1 3Z"/></symbol><symbol viewBox="0 0 24 24" id="paper-plane"><path d="m22 2-7 20-4-9-9-4zm0 0L11 13"/></symbol><symbol viewBox="0 0 24 24" id="paperclip"><path d="m15 7-7 7a1 1 0 0 0 3 3l7.5-7.5a1 1 0 0 0-6-6L5 11a1 1 0 0 0 9 9l7-7"/></symbol><symbol viewBox="0 0 24 24" id="patreon"><path d="M2 2h3v20H2Z"/><circle cx="15" cy="9" r="7"/></symbol><symbol viewBox="0 0 24 24" id="pause"><path d="M5 4h4v16H5Zm10 0h4v16h-4Z"/></symbol><symbol viewBox="0 0 24 24" id="paypal"><path d="m6 22 4-16h7a1 1 0 0 1 0 11h-4.7L11 22Zm1-4H2L6 2h7a1 1 0 0 1 0 11H8.3"/></symbol><symbol viewBox="0 0 24 24" id="pencil"><path d="M16 4a1 1 0 0 1 3 3L7 19l-4 1 1-4zm-4 16h9"/></symbol><symbol viewBox="0 0 24 24" id="pinterest"><circle cx="12" cy="12" r="11"/><path d="m8 22 3-11a1 1 0 0 0 5 5.5A6 6 0 1 0 6 12"/></symbol><symbol viewBox="0 0 24 24" id="play"><path d="m7 3 14 9-14 9z"/></symbol><symbol viewBox="0 0 24 24" id="plug"><path d="M8 2v5m8-5v5M5 7v3a1 1 0 0 0 14 0V7zm7 10v5"/></symbol><symbol viewBox="0 0 24 24" id="plus"><path d="M12 5v14m-7-7h14"/></symbol><symbol viewBox="0 0 24 24" id="power"><path d="M12 2v10M6 4a10 10 0 1 0 12 0"/></symbol><symbol viewBox="0 0 24 24" id="quote-left"><path d="M5 13h5v5H5v-7a4 5 0 0 1 4-5m5 7h5v5h-5v-7a4 5 0 0 1 4-5"/></symbol><symbol viewBox="0 0 24 24" id="quote-right"><path d="M10 11H5V6h5v7a4 5 0 0 1-4 5m13-7h-5V6h5v7a4 5 0 0 1-4 5"/></symbol><symbol viewBox="0 0 24 24" id="radio"><circle cx="12" cy="12" r="2"/><path d="M5 4.9a10 10 0 0 0 0 14.2M7.8 7.7a6 6 0 0 0 0 8.6m8.4 0a6 6 0 0 0 0-8.6M19 19.1a10 10 0 0 0 0-14.2"/></symbol><symbol viewBox="0 0 24 24" id="reddit"><circle cx="20" cy="5" r="2"/><path d="M5 10.5a14 14 0 0 1 14 0 2.4 2.4 0 1 1 2.5 4 9.6 6.6 0 1 1-19 0 2.4 2.4 0 1 1 2.5-4Zm7-1.9 1.5-6.1 4.6 1.7M10 18q2 1 4 0m-5-4h0m6 0h0"/></symbol><symbol viewBox="0 0 24 24" id="rhombus"><path d="M10.4 2.4a2 2 0 0 1 3.2 0l7 8.2a2 2 0 0 1 0 2.8l-7 8.2a2 2 0 0 1-3.2 0l-7-8.2a2 2 0 0 1 0-2.8Z"/></symbol><symbol viewBox="0 0 24 24" id="rows"><rect width="18" height="18" x="3" y="3" rx="2"/><path d="M3 12h18"/></symbol><symbol viewBox="0 0 24 24" id="rss"><path d="M4 11a9 9 0 0 1 9 9M4 4a16 16 0 0 1 16 16"/><circle cx="5" cy="19" r="1"/></symbol><symbol viewBox="0 0 24 24" id="search"><circle cx="10" cy="10" r="7"/><path d="m15 15 6 6"/></symbol><symbol viewBox="0 0 24 24" id="share"><circle cx="18" cy="5" r="3"/><circle cx="6" cy="12" r="3"/><circle cx="18" cy="19" r="3"/><path d="m8.5 13.5 7 4m0-11-7 4"/></symbol><symbol viewBox="0 0 24 24" id="shield"><path d="M12 2 4 5v7q0 6 8 10 8-4 8-10V5Z"/></symbol><symbol viewBox="0 0 24 24" id="shuffle"><path d="m19 3 3 3-3 3m0 12 3-3-3-3M2 6h4l10 12h6M2 18h4l2-2.4m6-7.2L16 6h6"/></symbol><symbol viewBox="0 0 24 24" id="sidebar"><rect width="18" height="18" x="3" y="3" rx="2"/><path d="M9 3v18"/></symbol><symbol viewBox="0 0 24 24" id="soundcloud"><path d="M11 7v11m-3 0v-7m-6 6v-3m3-4v8m9 0h6a1 1 0 0 0 0-6 6 6 0 0 0-6-6Z"/></symbol><symbol viewBox="0 0 24 24" id="sparkle"><path d="M2 12q9 1 10 10 1-9 10-10-9-1-10-10-1 9-10 10Z"/></symbol><symbol viewBox="0 0 24 24" id="sparkles"><path d="M7 12q7 1 8 8 1-7 8-8-7-1-8-8-1 7-8 8zM4 2v6M1 5h6M4 16v6m-3-3h6"/></symbol><symbol viewBox="0 0 24 24" id="spotify"><circle cx="12" cy="12" r="11"/><path d="M6 8q7-2 12 1M7 12q5.5-1.5 10 1m-9 3q4.5-1.5 8 1"/></symbol><symbol viewBox="0 0 24 24" id="square"><rect width="18" height="18" x="3" y="3" rx="2"/></symbol><symbol viewBox="0 0 24 24" id="square-exclamation"><rect width="18" height="18" x="3" y="3" rx="2"/><path d="M12 8v4m0 4h0"/></symbol><symbol viewBox="0 0 24 24" id="star"><path d="m12 1.5 3.1 6.3 6.9 1-5 4.8 1.2 6.9-6.2-3.2-6.2 3.2L7 13.6 2 8.8l6.9-1z"/></symbol><symbol viewBox="0 0 24 24" id="sterling"><path d="M16 7a1 1 90 1 0-6 0v9a4 4 90 0 1-4 4h12M8 13h7"/></symbol><symbol viewBox="0 0 24 24" id="sun"><circle cx="12" cy="12" r="5"/><path d="M12 1v2m0 18v2M4.2 4.2l1.4 1.4m12.8 12.8 1.4 1.4M1 12h2m18 0h2M4.2 19.8l1.4-1.4M18.4 5.6l1.4-1.4"/></symbol><symbol viewBox="0 0 24 24" id="table-layout"><rect width="18" height="18" x="3" y="3" rx="2"/><path d="M9 3v18M3 9h18"/></symbol><symbol viewBox="0 0 24 24" id="table-list"><rect width="18" height="18" x="3" y="3" rx="2"/><path d="M9 3v18M3 9h18M3 15h18"/></symbol><symbol viewBox="0 0 24 24" id="tag"><path d="M12 2H2v10l8.5 8.5q1.5 1.4 3 0l7-7q1.4-1.5 0-3ZM7 7h0"/></symbol><symbol viewBox="0 0 24 24" id="telegram"><path d="M12.5 16 9 19.5 7 13l-5.5-2 21-8-4 18-7.5-7 4-3"/></symbol><symbol viewBox="0 0 24 24" id="terminal"><rect width="18" height="18" x="3" y="3" rx="2"/><path d="m8 9 3 3-3 3m5 1h3"/></symbol><symbol viewBox="0 0 24 24" id="text"><path d="M4 7V4h16v3m-8-3v16m-3 0h6"/></symbol><symbol viewBox="0 0 24 24" id="threads"><path d="M20 8C18 0 6 0 4 8s1.5 14 8 14 10-7.6 4-10-9 2-7 4 7 1 7-4-5-6-7-4"/></symbol><symbol viewBox="0 0 24 24" id="thumbs-down"><path d="M10 15v4a3 3 0 0 0 3 3l4-9V3l-4-1H7a3 3 0 0 0-3 2l-2 8a2 2.3 0 0 0 2 3zm7-12h4a1 1 0 0 1 1 1v8a1 1 0 0 1-1 1h-4"/></symbol><symbol viewBox="0 0 24 24" id="thumbs-up"><path d="M7 21H3a1 1 0 0 1-1-1v-8a1 1 0 0 1 1-1h4l4-9a3 3 0 0 1 3 3v4h6a2 2.3 0 0 1 2 3l-2 8a3 3 0 0 1-3 2h-6l-4-1V11"/></symbol><symbol viewBox="0 0 24 24" id="tiktok"><path d="M22 6v5q-4 0-6-2v7a7 7 0 1 1-5-6.7m0 6.7a2 2 0 1 0-2 2 2 2 0 0 0 2-2V1h5q2 5 6 5"/></symbol><symbol viewBox="0 0 24 24" id="trash"><path d="M3 6h18m-2 0v14a2 2 0 0 1-2 2H7a2 2 0 0 1-2-2V6m2 0 2-4h6l2 4"/></symbol><symbol viewBox="0 0 24 24" id="trash-can"><path d="M3 6h18m-2 0v14a2 2 0 0 1-2 2H7a2 2 0 0 1-2-2V6m2 0 2-4h6l2 4m-7 5v6m4-6v6"/></symbol><symbol viewBox="0 0 24 24" id="trello"><rect width="22" height="22" x="1" y="1" rx="3"/><path d="M6 6h4v10H6zm8 0h4v6h-4z"/></symbol><symbol viewBox="0 0 24 24" id="triangle"><path d="M2 18a2 2 0 0 0 1.7 3h16.6a2 2 0 0 0 1.7-3L13.8 4a2 2 0 0 0-3.6 0Z"/></symbol><symbol viewBox="0 0 24 24" id="triangle-exclamation"><path d="M2 18a2 2 0 0 0 1.7 3h16.6a2 2 0 0 0 1.7-3L13.8 4a2 2 0 0 0-3.6 0Zm10-9v4m0 4h0"/></symbol><symbol viewBox="0 0 24 24" id="tumblr"><path d="M18 17.5V22h-4a5 5 0 0 1-5-5v-7H7V6.5q3.3-.9 3.5-4.5H14v4h4v4h-4v6.5q0 1 1 1Z"/></symbol><symbol viewBox="0 0 24 24" id="turn-down-left"><path d="m9 10-5 5 5 5M20 4v7a4 4 0 0 1-4 4H4"/></symbol><symbol viewBox="0 0 24 24" id="turn-down-right"><path d="m15 10 5 5-5 5M4 4v7a4 4 0 0 0 4 4h12"/></symbol><symbol viewBox="0 0 24 24" id="turn-left-down"><path d="m14 15-5 5-5-5M20 4h-7a4 4 0 0 0-4 4v12"/></symbol><symbol viewBox="0 0 24 24" id="turn-left-up"><path d="M14 9 9 4 4 9m16 11h-7a4 4 0 0 1-4-4V4"/></symbol><symbol viewBox="0 0 24 24" id="turn-right-down"><path d="m10 15 5 5 5-5M4 4h7a4 4 0 0 1 4 4v12"/></symbol><symbol viewBox="0 0 24 24" id="turn-right-up"><path d="m10 9 5-5 5 5M4 20h7a4 4 0 0 0 4-4V4"/></symbol><symbol viewBox="0 0 24 24" id="turn-up-left"><path d="M9 14 4 9l5-5m11 16v-7a4 4 0 0 0-4-4H4"/></symbol><symbol viewBox="0 0 24 24" id="turn-up-right"><path d="m15 14 5-5-5-5M4 20v-7a4 4 0 0 1 4-4h12"/></symbol><symbol viewBox="0 0 24 24" id="tv"><rect width="22" height="15" x="1" y="3" rx="3"/><path d="M7 21h10"/></symbol><symbol viewBox="0 0 24 24" id="tv-retro"><rect width="20" height="15" x="2" y="7" rx="3"/><path d="m7 2 5 5 5-5"/></symbol><symbol viewBox="0 0 24 24" id="twitch"><path d="M8 22v-4H3V6l4-4h14v12l-4 4h-5Zm3-15v4m5-4v4"/></symbol><symbol viewBox="0 0 24 24" id="twitter"><path d="M12 7.5a4.5 4.5 0 0 1 8-3Q22 4 23 3q0 2-2 4A13 13 0 0 1 1 19q5 0 7-2-8-4-5-13 4 5 9 5Z"/></symbol><symbol viewBox="0 0 24 24" id="unlink"><path d="m18 13 3-3a1 1 0 0 0-7-7l-3 3m-5 5-3 3a1 1 0 0 0 7 7l3-3M5 5l14 14"/></symbol><symbol viewBox="0 0 24 24" id="upload"><path d="m7 8 5-5 5 5m-5 7V3m10 12v4a2 2 0 0 1-2 2H4a2 2 0 0 1-2-2v-4"/></symbol><symbol viewBox="0 0 24 24" id="upload-cloud"><path d="M18 17a5 5 0 1 0 0-10A1 1 0 1 0 5 9a1 1 0 0 0 0 8h1m3-3 3-3 3 3m-3 9V11"/></symbol><symbol viewBox="0 0 24 24" id="usdt"><path d="M5 4h14m-7 0v6m0 10v-6M8 9a8 2.7 0 1 0 8 0"/></symbol><symbol viewBox="0 0 24 24" id="user"><circle cx="12" cy="6" r="4"/><path d="M21 22a1 1 0 0 0-18 0Z"/></symbol><symbol viewBox="0 0 24 24" id="vinyl-disc"><circle cx="12" cy="12" r="10"/><circle cx="12" cy="12" r="4"/><path d="M12 12h0"/></symbol><symbol viewBox="0 0 24 24" id="visual-studio-code"><path d="m12 12 5 3.5v-7Zm-8 6-3-3 3.4-3L1 9l3-3 4 2.9L17 1l6 3v16l-6 3-9-7.9Z"/></symbol><symbol viewBox="0 0 24 24" id="vk"><rect width="22" height="22" x="1" y="1" rx="5"/><path d="M7 8.5a7 8 0 0 0 5 7v-7m5 0Q16 11 13 12q3 1 4 3.5M12 12h1"/></symbol><symbol viewBox="0 0 24 24" id="volume-high"><path d="M6 9H2v6h4l5 4V5Zm9 7a5 5 0 0 0 0-8m3 12a10 10 0 0 0 0-16"/></symbol><symbol viewBox="0 0 24 24" id="volume-low"><path d="M6 9H2v6h4l5 4V5Zm9 7a5 5 0 0 0 0-8"/></symbol><symbol viewBox="0 0 24 24" id="volume-off"><path d="M6 9H2v6h4l5 4V5Z"/></symbol><symbol viewBox="0 0 24 24" id="volume-xmark"><path d="m16 9 6 6M6 9H2v6h4l5 4V5Zm10 6 6-6"/></symbol><symbol viewBox="0 0 24 24" id="wave"><path d="M2 12c2 9 8 9 10 0s8-9 10 0"/></symbol><symbol viewBox="0 0 24 24" id="wave-lines"><path d="M3 12v0m3-2v4m3-7v10m3-14v18m3-11v4m3-7v10m3-5v0"/></symbol><symbol viewBox="0 0 24 24" id="wave-pulse"><path d="M2 12h4l3 9 6-18 3 9h4"/></symbol><symbol viewBox="0 0 24 24" id="wave-square"><path d="M2 12h4v8h6V4h6v8h4"/></symbol><symbol viewBox="0 0 24 24" id="wave-triangle"><path d="m2 12 5 7L17 5l5 7"/></symbol><symbol viewBox="0 0 24 24" id="whatsapp"><circle cx="9" cy="9" r="1"/><circle cx="15" cy="15" r="1"/><path d="M8 9a7 7 0 0 0 7 7m-9 5.2A11 11 0 1 0 2.8 18L2 22Z"/></symbol><symbol viewBox="0 0 24 24" id="wind"><path d="M12 4a3 3 0 1 1 3 4H2m3 12a3 3 0 1 0 3-4H2m15 0a3 3 0 1 0 3-4H2"/></symbol><symbol viewBox="0 0 24 24" id="windows"><path d="M2 12h20m-11.3 8.3V3.7M2 5l20-3v20L2 19Z"/></symbol><symbol viewBox="0 0 24 24" id="wordpress"><path d="M1 8h5M2.8 8 8 21l4-10M9 8h5m-3.2 0L16 21l3.2-7.5C25 0 14 2 17 7s2.2 6.5 2.2 6.5M8 21l4-10"/></symbol><symbol viewBox="0 0 24 24" id="xmark"><path d="M18 6 6 18M6 6l12 12"/></symbol><symbol viewBox="0 0 24 24" id="youtube"><path d="M1.5 17q-1-5.5 0-10Q1.9 4.8 4 4.5q8-1 16 0 2.1.3 2.5 2.5 1 4.5 0 10-.4 2.2-2.5 2.5-8 1-16 0-2.1-.3-2.5-2.5Zm8-8.5v7l6-3.5Z"/></symbol></svg>