<svg class="i i-gear" viewBox="0 0 24 24" xmlns="http://www.w3.org/2000/svg" fill="none" stroke="currentColor" stroke-width="2" stroke-linecap="round" stroke-linejoin="round">
  <circle cx="12" cy="12" r="3"/>
  <path d="M10 21a1 1 0 0 0 4 0 1.8 1.8 0 0 1 3-1.3 1 1 0 0 0 2.8-2.7 1.8 1.8 0 0 1 1.2-3 1 1 0 0 0 0-4 1.8 1.8 0 0 1-1.2-3A1 1 0 0 0 17 4.4 1.8 1.8 0 0 1 14 3a1 1 0 0 0-4 0 1.8 1.8 0 0 1-3 1.4A1 1 0 0 0 4.2 7 1.8 1.8 0 0 1 3 10a1 1 0 0 0 0 4 1.8 1.8 0 0 1 1.2 3A1 1 0 0 0 7 19.7a1.8 1.8 0 0 1 3 1.3Z"/>
</svg>